grf
version=1
nRows=8
nColumns=28
inDegrees=no
endheader
time	ground_force_1_vx	ground_force_1_vy	ground_force_1_vz	ground_force_1_px	ground_force_1_py	ground_force_1_pz	ground_moment_1_mx	ground_moment_1_my	ground_moment_1_mz	ground_force_2_vx	ground_force_2_vy	ground_force_2_vz	ground_force_2_px	ground_force_2_py	ground_force_2_pz	ground_moment_2_mx	ground_moment_2_my	ground_moment_2_mz	ground_force_3_vx	ground_force_3_vy	ground_force_3_vz	ground_force_3_px	ground_force_3_py	ground_force_3_pz	ground_moment_3_mx	ground_moment_3_my	ground_moment_3_mz
      0.31000000	      0.49877232	      0.25212623	      1.82294013	    268.29105372	  -1229.63673834	      1.99471013	      0.07717610	      0.27906979	    152.91521850	      0.39402796	      0.20674671	      1.80979307	     81.82955151	  -1478.67888778	      0.34943836	     -0.01890719	     -0.24452551	    293.00841794	      2.90524729	    -50.69178617	    -54.34860352	    420.95347004	   -644.97536535	      1.11416354	      0.09767739	     -0.71753098	   -349.39464074
      0.32000000	      0.59160821	      0.31897973	      1.01374483	    153.08235559	  -1205.82898824	      2.00940674	      0.09535614	      0.34480904	    188.93679035	      0.34196487	      0.17589333	      2.30224223	    183.74825305	  -1544.78622497	      0.30084613	     -0.01097263	     -0.14190830	    170.04494236	     -1.58642127	    -19.69695886	    -18.39503993	    428.57904036	   -715.88926985	      1.26192702	      0.04070970	     -0.29905049	   -145.61968789
      0.33000000	      0.54189739	      0.31353222	      2.12543005	    337.72843874	  -1250.81076417	      1.99830771	      0.07645637	      0.27646724	    151.48916051	      0.49862970	      0.19753802	      2.33116765	    138.93941321	  -1594.25306935	      0.25667294	     -0.00977354	     -0.12640064	    151.46252233	      0.40970060	     -3.42715381	      1.15394031	    452.92575081	    680.68107361	     -1.59931997	     -0.11871053	      0.87203885	    424.63072610
      0.34000000	      0.43097078	      0.30449900	      1.15803426	    216.02453671	  -1169.87218318	      1.91201885	      0.13454452	      0.48651471	    266.58386193	      0.45615702	      0.26400987	      1.91894411	     77.96365579	  -1486.63873239	      0.34254614	     -0.02163088	     -0.27975087	    335.21803742	      1.74863386	     -0.42129614	      4.87164802	    455.96433265	   -286.32718375	      0.38741681	     -0.11777643	      0.86517701	    421.28942226
      0.35000000	      0.24331577	      0.12594981	      2.21763757	    344.96545537	  -1233.72194665	      1.96346816	      0.06573079	      0.23768339	    130.23770205	      0.50589318	      0.15584803	      1.57365216	      2.07321884	  -1445.61290180	      0.37188655	     -0.01634678	     -0.21141191	    253.32927116	      1.57981955	     -0.33839066	      4.55131067	    432.17032202	   -299.86081650	      0.40855813	     -0.09818933	      0.72129161	    351.22584131
      0.36000000	      0.49079398	      0.26857636	      2.09670810	    315.15393611	  -1217.19685425	      1.94835575	      0.09013923	      0.32594463	    178.60010819	      0.59126187	      0.25440335	      1.74434878	     95.39693774	  -1477.50557543	      0.35129300	     -0.02125828	     -0.27493201	    329.44371740	      1.55236999	     -0.62365500	      4.59544220	    423.07884204	   -312.39133168	      0.43174967	     -0.08102366	      0.59519388	    289.82379505
      0.37000000	      0.45582915	      0.25354627	      2.14530680	    338.92440901	  -1225.73972869	      1.95194954	      0.07203930	      0.26049506	    142.73726420	      0.43426631	      0.27620871	      1.57422293	    -13.27141293	  -1512.46262679	      0.31510802	     -0.01991696	     -0.25758478	    308.65699840	      1.65233442	     -0.46647712	      4.98312297	    433.71192160	   -254.12136333	      0.31505671	     -0.11543811	      0.84799995	    412.92521804
      0.38000000	      0.69844985	      0.37761454	      1.22296892	    240.87553591	  -1334.89545724	      2.20064354	      0.05321510	      0.19242650	    105.43936112	      0.23899531	      0.18205359	      1.67890365	     69.85616491	  -1519.24723065	      0.31481008	     -0.01363913	     -0.17639403	    211.36828222	      1.68264343	     -0.70127735	      4.60839042	    446.22161813	   -272.32366670	      0.35593493	     -0.12718671	      0.93430425	    454.95025028
